<mxfile host="app.diagrams.net" modified="2023-10-25T06:44:16.141Z" agent="Mozilla/5.0 (Windows NT 10.0; Win64; x64) AppleWebKit/537.36 (KHTML, like Gecko) Chrome/118.0.0.0 Safari/537.36" version="22.0.7" etag="vNu4eU4cQWSrsBTO7T_v" type="github">
  <diagram name="Page-1" id="GFk-EmdwgZCcr7nJSMis">
    <mxGraphModel>
      <root>
        <mxCell id="0" />
        <mxCell id="1" parent="0" />
      </root>
    </mxGraphModel>
  </diagram>
</mxfile>
